<svg xmlns="http://www.w3.org/2000/svg" xmlns:xlink="http://www.w3.org/1999/xlink" viewBox="0 0 220 220" width="220" height="220">
<a xlink:href="http://www.mediaevent.de/xhtml/object.html" target="_top"><path id="backcircle" style="fill:#cfdde5" d="m 197.36561,101.55727 a 98,98 0 1 1 -0.045,-2.970768" /></a>
<path style="fill:#f8f894" d="m 43.899516,70.66727 c 0,0 1.875892,-6.96844 -4.817667,-15.65746 -7.81297,-10.14215 -23.60664,-12.0442 -23.60664,-12.0442 0,0 0.08912,14.83495 10.358021,24.0884 11.209499,10.10102 18.066286,3.61326 18.066286,3.61326 z" /><path d="m 60.812025,90.1116 c 0,0 -1.87589,6.96843 4.81767,15.65745 7.81297,10.14215 23.60664,12.0442 23.60664,12.0442 0,0 -0.0891,-14.83495 -10.35802,-24.0884 -11.2095,-10.10102 -18.06629,-3.61325 -18.06629,-3.61325 z" style="fill:#f8f894" />
<path d="m 54.818025,93.0372 c 0,0 -5.10879,5.0969 -3.65651,15.96859 1.69516,12.68984 14.42185,22.2339 14.42185,22.2339 0,0 7.3403,-12.892 3.07389,-26.04017 C 64.000055,90.84703 54.818025,93.0372 54.818025,93.0372 z" style="fill:#f8f894" /><path style="fill:#f8f894" d="m 49.893525,67.74166 c 0,0 5.10878,-5.0969 3.6565,-15.96859 -1.69516,-12.68984 -14.421847,-22.2339 -14.421847,-22.2339 0,0 -7.340294,12.892 -3.07389,26.04017 4.657203,14.35249 13.839237,12.16232 13.839237,12.16232 z" /><path d="m 56.547285,68.20502 c 0,0 6.97279,-1.85965 11.15092,-12.00096 4.87687,-11.8373 -1.37274,-26.46604 -1.37274,-26.46604 0,0 -12.80288,7.49465 -15.68215,21.01451 -3.14299,14.75821 5.90397,17.45249 5.90397,17.45249 z" style="fill:#f8f894" /><path style="fill:#f8f894" d="m 48.164265,92.57385 c 0,0 -6.972792,1.85965 -11.150929,12.00095 -4.87687,11.8373 1.37274,26.46605 1.37274,26.46605 0,0 12.802879,-7.49466 15.682149,-21.01451 3.143,-14.75822 -5.90396,-17.45249 -5.90396,-17.45249 z" />
<path style="fill:#f8f894" d="m 42.633609,88.84569 c 0,0 -6.968436,-1.87589 -15.657459,4.81767 -10.142146,7.81297 -12.044196,23.60663 -12.044196,23.60663 0,0 14.834946,-0.0891 24.088396,-10.35802 10.101025,-11.20949 3.613259,-18.06628 3.613259,-18.06628 z" />
<path d="m 62.077935,71.93318 c 0,0 6.96844,1.87588 15.65746,-4.81767 10.14215,-7.81297 12.0442,-23.60664 12.0442,-23.60664 0,0 -14.83495,0.0891 -24.0884,10.35802 -10.10102,11.2095 -3.61326,18.06629 -3.61326,18.06629 z" style="fill:#f8f894" />
<path style="fill:#f8f894" d="m 65.003545,77.92718 c 0,0 5.0969,5.10879 15.96859,3.65651 12.68984,-1.69516 22.233895,-14.42186 22.233895,-14.42186 0,0 -12.891995,-7.34029 -26.040175,-3.07388 -14.35248,4.65719 -12.16231,13.83923 -12.16231,13.83923 z" />
<path d="m 39.708003,82.85168 c 0,0 -5.096896,-5.10878 -15.968592,-3.6565 C 11.04957,80.89034 1.50551,93.61703 1.50551,93.61703 c 0,0 12.892004,7.34029 26.040177,3.07388 14.35249,-4.65719 12.162316,-13.83923 12.162316,-13.83923 z" style="fill:#f8f894" />
<path d="m 40.171359,76.19792 c 0,0 -1.859651,-6.97279 -12.000953,-11.15092 C 16.3331,60.17013 1.704357,66.41974 1.704357,66.41974 c 0,0 7.494652,12.80288 21.01451,15.68215 14.758221,3.14299 17.452492,-5.90397 17.452492,-5.90397 z" style="fill:#f8f894" />
<path style="fill:#f8f894" d="m 64.540185,84.58094 c 0,0 1.85965,6.97279 12.00096,11.15093 11.8373,4.87687 26.466035,-1.37274 26.466035,-1.37274 0,0 -7.494645,-12.80289 -21.014495,-15.68216 -14.75823,-3.14299 -17.4525,5.90397 -17.4525,5.90397 z" />
<path d="M 83.454718,81.312116 A 31.986286,31.986286 0 1 1 83.44013,80.346072" style="fill:#f0d4a7" />
<path d="m 109.75689,108.98205 c 0,0 2.98181,-11.07662 -7.65789,-24.88819 C 89.679965,67.9725 64.575275,64.94911 64.575275,64.94911 c 0,0 0.14166,23.58077 16.4645,38.28951 17.81797,16.056 28.717115,5.74343 28.717115,5.74343 z" style="fill:#f1f16b" />
<path style="fill:#f1f16b" d="m 136.64003,139.88962 c 0,0 -2.9818,11.07662 7.65789,24.88818 12.41904,16.12136 37.52373,19.14476 37.52373,19.14476 0,0 -0.14165,-23.58077 -16.4645,-38.28952 -17.81797,-16.05599 -28.71712,-5.74342 -28.71712,-5.74342 z" />
<path d="m 128.98175,144.34918 c -1.16874,0.0215 -1.86579,0.18837 -1.86579,0.18837 0,0 -8.12112,8.10451 -5.81265,25.38552 1.74064,13.03027 10.7943,23.9616 16.98946,30.07691 l 5.71595,6.80332 c 2.99607,-7.42102 9.79179,-28.48227 5.10205,-42.93508 -5.78345,-17.82334 -15.95492,-19.59579 -20.12902,-19.51904 z" style="fill:#f1f16b" /><path d="m 119.28462,104.33167 c 0,0 8.12063,-8.10172 5.81217,-25.38274 -2.69453,-20.17103 -22.92413,-35.34171 -22.92413,-35.34171 0,0 -11.667715,20.49238 -4.886085,41.39195 7.402825,22.81388 21.998045,19.3325 21.998045,19.3325 z" style="fill:#f1f16b" /><path style="fill:#f1f16b" d="m 129.86105,105.0682 c 0,0 11.08353,-2.95599 17.72485,-19.07602 7.75199,-18.81589 -2.18202,-42.06888 -2.18202,-42.06888 0,0 -20.35071,11.91306 -24.92743,33.40343 -4.99592,23.45881 9.38461,27.74147 9.38461,27.74147 z" /><path d="m 116.54017,143.802 c 0,0 -11.08369,2.95948 -17.725015,19.07951 -5.56129,13.49854 -2.03292,29.27645 0.41262,37.11847 l 3.770965,6.80332 c 6.3614,-5.38778 20.07159,-21.86194 22.9242,-35.25663 4.99592,-23.45881 -9.38277,-27.74467 -9.38277,-27.74467 z" style="fill:#f1f16b"  /><path d="m 107.74468,137.8774 c 0,0 -11.076615,-2.9818 -24.888185,7.65789 -16.12136,12.41904 -19.14475,37.52374 -19.14475,37.52374 0,0 23.58077,-0.14166 38.289505,-16.46451 16.05599,-17.81797 5.74342,-28.71712 5.74342,-28.71712 z" style="fill:#f1f16b" /><path style="fill:#f1f16b" d="m 138.65225,110.99426 c 0,0 11.07661,2.98181 24.88818,-7.65788 16.12136,-12.41905 19.14475,-37.52374 19.14475,-37.52374 0,0 -23.58077,0.14166 -38.28951,16.46451 -16.05599,17.81796 -5.74342,28.71711 -5.74342,28.71711 z" /><path d="m 176.084,96.40374 c -4.32257,0.0331 -8.87447,0.63347 -13.44625,2.11695 -22.81388,7.40282 -19.33067,22.00378 -19.33067,22.00378 0,0 8.09554,8.12111 25.37655,5.81265 12.00033,-1.60305 22.23286,-9.41876 28.55198,-15.48247 l 9.16969,-9.59871 c -5.12389,-1.92017 -21.86083,-4.91693 -30.3213,-4.8522 z" style="fill:#f1f16b" /><path style="fill:#f1f16b" d="m 103.0943,128.34968 c 0,0 -8.101725,-8.12062 -25.382735,-5.81217 -20.17103,2.69453 -35.34171,22.92414 -35.34171,22.92414 0,0 20.49238,11.6677 41.39195,4.88607 22.813885,-7.40281 19.332505,-21.99804 19.332505,-21.99804 z" /><path style="fill:#f1f16b" d="m 103.83083,117.77325 c 0,0 -2.95599,-11.08354 -19.076015,-17.72486 -18.81589,-7.75199 -42.068887,2.18203 -42.068887,2.18203 0,0 11.913067,20.35071 33.403437,24.92743 23.45881,4.99592 27.741465,-9.3846 27.741465,-9.3846 z" /><path d="m 160.65535,120.65902 c -15.04396,0.19835 -18.09279,10.44125 -18.09279,10.44125 0,0 2.95948,11.08369 19.0795,17.72502 12.67654,5.22262 35.34304,0.34273 43.58006,-2.04368 l -7.98651,-8.61287 c -5.59783,-6.15984 -14.71394,-13.84998 -26.92838,-16.45125 -3.66544,-0.78061 -6.86597,-1.0952 -9.65188,-1.05847 z" style="fill:#f1f16b" />
<a xlink:href="http://www.mediaevent.de/javascript/index.html" target="_top"><path style="fill:#eac385" d="m 172.63153,125.90248 a 50.843534,50.843534 0 1 1 -0.0232,-1.53556" /><path d="m 111.87451,93.48503 a 6.0291655,6.0291655 0 1 1 -0.003,-0.182092" style="fill:#ebe188" /><path style="fill:#ebe188" d="m 126.61247,93.48503 a 6.0291655,6.0291655 0 1 1 -0.003,-0.182092" /><path d="m 141.35043,93.48503 a 6.0291655,6.0291655 0 1 1 -0.003,-0.182092" style="fill:#ebe188" /><path style="fill:#ebe188" d="m 133.6465,106.54823 a 6.0291655,6.0291655 0 1 1 -0.003,-0.18209" /><path d="m 118.57358,106.54823 a 6.0291655,6.0291655 0 1 1 -0.003,-0.18209" style="fill:#ebe188" /><path style="fill:#ebe188" d="m 103.16572,106.54823 a 6.0291655,6.0291655 0 1 1 -0.003,-0.18209" /><path d="m 92.782154,117.93665 a 6.0291655,6.0291655 0 1 1 -0.0029,-0.18209" style="fill:#ebe188" /><path style="fill:#ebe188" d="m 110.19974,118.60656 a 6.0291655,6.0291655 0 1 1 -0.003,-0.18209" /><path d="m 126.27752,119.27646 a 6.0291655,6.0291655 0 1 1 -0.003,-0.18209" style="fill:#ebe188" /><path style="fill:#ebe188" d="m 41.8692,62.669296 a 4.3543973,4.3543973 0 1 1 -0.0021,-0.131511" /><path d="m 52.92267,62.669296 a 4.3543973,4.3543973 0 1 1 -0.0021,-0.131511" style="fill:#ebe188" /><path style="fill:#ebe188" d="m 35.170127,73.052866 a 4.3543973,4.3543973 0 1 1 -0.0021,-0.131511" /><path d="m 46.893504,73.052866 a 4.3543973,4.3543973 0 1 1 -0.0021,-0.131511" style="fill:#ebe188" /><path style="fill:#ebe188" d="m 58.281927,73.052866 a 4.3543973,4.3543973 0 1 1 -0.0021,-0.131511" /><path d="m 41.199292,83.436426 a 4.3543973,4.3543973 0 1 1 -0.0021,-0.131511" style="fill:#ebe188" /></a>
<script type="text/javascript">
bc = document.getElementById('backcircle');
bc.onmouseover = function() {
	this.style.fill = "rosybrown";
}
bc.onmouseout = function() {
	this.style.fill = "#f0d4a7";
}
</script>
</svg>